<?xml version="1.0" encoding="UTF-8"?>
<!DOCTYPE svg PUBLIC "-//W3C//DTD SVG 1.1//EN" "http://www.w3.org/Graphics/SVG/1.1/DTD/svg11.dtd">
<svg version="1.1" xmlns="http://www.w3.org/2000/svg" xmlns:xlink="http://www.w3.org/1999/xlink" x="0" y="0" width="126.595" height="143.541" viewBox="0, 0, 126.595, 143.541">
  <g id="Layer_1">
    <path d="M54.346,49.8 L87.046,40.68 L64.771,4.776 L54.346,49.8 z" fill="#04C0EB" id="path3638"/>
    <path d="M94.019,38.736 L121.616,31.04 L71.184,1.918 L94.019,38.736 z" fill="#3A73B9" id="path3642"/>
    <path d="M15.352,61.661 L0.001,41.553 L0.001,53.029 C0.034,53.046 0.068,53.057 0.101,53.071 L15.352,61.661 z" fill="#3A73B9" id="path3654"/>
    <path d="M113.76,40.452 L93.391,46.13 C93.381,46.133 93.376,46.136 93.37,46.137 L54.18,57.065 L64.775,86.49 L113.76,40.452 z" fill="#3A73B9" id="path3658"/>
    <path d="M48.909,42.447 L58.735,-0 L37.947,12.007 L48.909,42.447 z" fill="#3A73B9" id="path3662"/>
    <path d="M126.595,53.03 L126.595,37.928 L86.553,75.562 L126.495,53.071 C126.528,53.056 126.561,53.046 126.595,53.03" fill="#04C0EB" id="path3666"/>
    <path d="M63.299,96.637 L0,60.996 L0,107.001 L63.299,143.541 L126.595,107.001 L126.595,60.996 L63.299,96.637 z" fill="#3A73B9" id="path3670"/>
    <path d="M24.72,62.466 L27.09,18.276 L2.03,32.743 L24.72,62.466 z" fill="#04C0EB" id="path3674"/>
    <path d="M33.892,21.271 L31.246,70.607 L56.858,85.03 L33.892,21.271 z" fill="#04C0EB" id="path3678"/>
  </g>
</svg>
