<?xml version="1.0" encoding="UTF-8"?>
<!DOCTYPE svg PUBLIC "-//W3C//DTD SVG 1.1//EN" "http://www.w3.org/Graphics/SVG/1.1/DTD/svg11.dtd">
<svg version="1.1" xmlns="http://www.w3.org/2000/svg" xmlns:xlink="http://www.w3.org/1999/xlink" x="0" y="0" width="596.475" height="143.541" viewBox="0, 0, 596.475, 143.541">
  <g id="Layer_1">
    <path d="M54.108,50.029 L86.808,40.909 L64.533,5.005 L54.108,50.029 z" fill="#000000" id="path3638"/>
    <path d="M93.781,38.965 L121.379,31.269 L70.946,2.148 L93.781,38.965 z" fill="#000000" id="path3642"/>
    <path d="M15.114,61.89 L-0.237,41.782 L-0.237,53.259 C-0.203,53.275 -0.17,53.286 -0.137,53.3 L15.114,61.89 z" fill="#000000" id="path3654"/>
    <path d="M113.522,40.681 L93.154,46.359 C93.144,46.363 93.139,46.365 93.132,46.366 L53.942,57.294 L64.537,86.719 L113.522,40.681 z" fill="#000000" id="path3658"/>
    <path d="M48.671,42.677 L58.498,0.229 L37.709,12.237 L48.671,42.677 z" fill="#000000" id="path3662"/>
    <path d="M126.357,53.259 L126.357,38.158 L86.316,75.791 L126.257,53.3 C126.291,53.285 126.323,53.275 126.357,53.259" fill="#000000" id="path3666"/>
    <path d="M63.061,96.867 L-0.238,61.225 L-0.238,107.23 L63.061,143.77 L126.357,107.23 L126.357,61.225 L63.061,96.867 z" fill="#000000" id="path3670"/>
    <path d="M24.482,62.696 L26.852,18.506 L1.792,32.972 L24.482,62.696 z" fill="#000000" id="path3674"/>
    <path d="M33.654,21.5 L31.008,70.837 L56.62,85.259 L33.654,21.5 z" fill="#000000" id="path3678"/>
    <path d="M192.338,87.094 C197.343,87.094 199.846,84.536 199.846,79.418 C199.846,73.078 196.106,69.908 188.63,69.908 L185.217,69.908 L185.217,62.616 C194.6,61.053 199.291,57.129 199.291,50.846 C199.291,47.433 197.187,45.728 192.978,45.728 L176.432,45.728 L176.432,87.094 L192.338,87.094 z M165.131,96.903 L165.131,35.919 L193.703,35.919 C205.302,35.919 211.103,40.653 211.103,50.121 C211.103,57.058 207.321,62.018 199.76,65.004 C207.833,66.511 211.87,71.131 211.87,78.864 C211.87,90.889 205.517,96.903 192.807,96.903 L165.131,96.903 z" fill="#000000" id="path3682"/>
    <path d="M229.57,70.633 L248.674,70.633 L248.674,70.292 C248.674,64.094 245.546,60.996 239.291,60.996 C233.322,60.996 230.08,64.208 229.57,70.633 M239.291,52.125 C252.882,52.125 259.677,59.062 259.677,72.936 C259.677,74.785 259.55,76.632 259.294,78.479 L229.57,78.479 C229.57,84.792 234.204,87.947 243.471,87.947 C247.992,87.947 252.512,87.521 257.034,86.668 L257.034,95.623 C253.081,96.476 248.276,96.903 242.619,96.903 C226.384,96.903 218.269,89.27 218.269,74.002 C218.269,59.417 225.275,52.125 239.291,52.125" fill="#000000" id="path3686"/>
    <path d="M262.831,52.125 L274.816,52.125 L286.118,84.365 L297.163,52.125 L308.933,52.125 L290.339,98.225 C287.04,106.355 281.766,112.141 274.516,115.581 L269.059,107.862 C274.061,105.672 277.7,102.105 279.975,97.159 L262.831,52.125 z" fill="#000000" id="path3690"/>
    <path d="M334.306,88.374 C341.557,88.374 345.18,83.697 345.18,74.342 C345.18,65.217 341.557,60.654 334.306,60.654 C327.057,60.654 323.432,65.217 323.432,74.342 C323.432,83.697 327.057,88.374 334.306,88.374 M312.131,74.514 C312.131,59.502 319.521,51.996 334.306,51.996 C349.089,51.996 356.481,59.502 356.481,74.514 C356.481,89.497 349.089,96.989 334.306,96.989 C319.58,96.989 312.187,89.497 312.131,74.514" fill="#000000" id="path3694"/>
    <path d="M365.012,96.903 L365.012,52.125 L373.754,52.125 L375.16,58.693 C379.453,54.314 384.343,52.125 389.83,52.125 C400.434,52.125 405.737,57.64 405.737,68.672 L405.737,96.903 L394.435,96.903 L394.435,68.672 C394.435,63.725 391.977,61.251 387.06,61.251 C383.39,61.251 379.809,62.715 376.313,65.644 L376.313,96.903 L365.012,96.903 z" fill="#000000" id="path3698"/>
    <path d="M444.76,63.81 C442.429,62.275 439.499,61.507 435.974,61.507 C428.953,61.507 425.441,65.445 425.441,73.32 C425.441,82.673 429.094,87.351 436.401,87.351 C439.358,87.351 442.143,86.938 444.76,86.113 L444.76,63.81 z M456.061,94.216 C449.209,96.007 442.514,96.903 435.974,96.903 C421.504,96.903 414.266,89.142 414.266,73.618 C414.266,59.29 421.348,52.125 435.505,52.125 C438.518,52.125 441.604,52.836 444.76,54.257 L444.76,35.92 L456.061,35.92 L456.061,94.216 z" fill="#000000" id="path3702"/>
    <path d="M525.871,35.92 L499.132,96.903 L486.977,96.903 L461.391,35.92 L474.824,35.92 L493.715,82.616 L512.565,35.92 L525.871,35.92 z" fill="#000000" id="path3706"/>
    <path d="M532.268,96.903 L532.268,35.919 L543.996,35.919 L564.68,82.19 L584.936,35.919 L596.237,35.919 L596.237,96.903 L585.787,96.903 L585.787,54.428 L569.242,96.903 L559.604,96.903 L542.716,54.428 L542.716,96.903 L532.268,96.903 z" fill="#000000" id="path3710"/>
  </g>
</svg>
